<svg xmlns="http://www.w3.org/2000/svg" viewBox="0 0 88.98 68"><defs><style>.cls-1{fill:#e6e6e6;}</style></defs><title>ISE Logo</title><g id="ise-logo" data-name="ise-logo-2.0pt"><path d="M69,43.24A9.24,9.24,0,1,1,78.52,34,9.38,9.38,0,0,1,69,43.24Zm0-16.48A7.24,7.24,0,1,0,76.52,34,7.38,7.38,0,0,0,69,26.76Z"/><path d="M69,48.62a15.74,15.74,0,0,1-3.56-.41l.46-2a13.57,13.57,0,0,0,5.35.17l.33,2A14.73,14.73,0,0,1,69,48.62Zm6.51-1.44-.84-1.81A13.07,13.07,0,0,0,79,42.17l1.5,1.32A15,15,0,0,1,75.54,47.18Zm-13.91-.46a14.79,14.79,0,0,1-4.67-4l1.59-1.22a12.89,12.89,0,0,0,4,3.48ZM82.73,40l-1.82-.85A12,12,0,0,0,82.06,34l1.48,0h.52A14.29,14.29,0,0,1,82.73,40ZM54.94,39.1A14.27,14.27,0,0,1,54,34c0-.34,0-.67,0-1l2,.13q0,.43,0,.87a12.16,12.16,0,0,0,.81,4.39Zm26.59-8.67a12.42,12.42,0,0,0-2.6-4.64l1.5-1.32a14.43,14.43,0,0,1,3,5.38Zm-24.74-.77L54.92,29a14.34,14.34,0,0,1,3.36-5.18l1.41,1.42A12.55,12.55,0,0,0,56.79,29.66Zm19.43-6.19a13.14,13.14,0,0,0-5-1.91l.32-2a15,15,0,0,1,5.75,2.2Zm-13.67-.42-1-1.74a15,15,0,0,1,5.87-1.85l.21,2A13.18,13.18,0,0,0,62.55,23.05Z"/><path class="cls-1" d="M67.93,52.64c-10.53,0-19.2-8.42-19.2-18.64s8.67-18.64,19.2-18.64L87,15V10.53A8.69,8.69,0,0,0,78.19,2H10.79A8.69,8.69,0,0,0,2,10.53V57.47A8.69,8.69,0,0,0,10.79,66h67.4A8.69,8.69,0,0,0,87,57.47V53Z"/><path d="M78.19,67H10.79A9.68,9.68,0,0,1,1,57.47V10.53A9.68,9.68,0,0,1,10.79,1h67.4A9.68,9.68,0,0,1,88,10.53V16l-20,.38C57.9,16.36,49.73,24.27,49.73,34s8.17,17.64,18.2,17.64h0L88,52v5.45A9.68,9.68,0,0,1,78.19,67ZM10.79,3A7.68,7.68,0,0,0,3,10.53V57.47A7.68,7.68,0,0,0,10.79,65h67.4A7.68,7.68,0,0,0,86,57.47V54l-18.06-.34c-11.13,0-20.19-8.82-20.19-19.64s9.06-19.64,20.2-19.64L86,14V10.53A7.68,7.68,0,0,0,78.19,3Z"/></g></svg>
